<svg xmlns="http://www.w3.org/2000/svg" xmlns:xlink="http://www.w3.org/1999/xlink" version="1.1" x="0px" y="0px" viewBox="0 0 100 100" enable-background="new 0 0 100 100" xml:space="preserve"><g><path fill="#000000" d="M79.02,74.04c2.892-3.421,5.191-7.353,6.739-11.649l10.411,6.012c2.391-5.836,3.717-12.223,3.717-18.918   s-1.326-13.082-3.717-18.918l-10.411,6.01c-1.547-4.295-3.848-8.228-6.737-11.647L89.43,18.92C81.594,8.806,69.966,1.791,56.674,0   v12.021c-2.186-0.39-4.432-0.605-6.729-0.605c-2.297,0-4.544,0.215-6.729,0.605V0C29.923,1.792,18.294,8.806,10.457,18.917   l10.41,6.009c-2.891,3.419-5.191,7.353-6.739,11.646l-10.41-6.01C1.328,36.401,0,42.786,0,49.482C0,56.18,1.328,62.564,3.719,68.4   l10.409-6.01c1.548,4.297,3.85,8.229,6.74,11.647l-10.409,6.009c7.838,10.111,19.465,17.126,32.757,18.915V86.941   c2.185,0.392,4.432,0.604,6.729,0.604c2.298,0,4.543-0.215,6.729-0.604v12.021c13.291-1.789,24.917-8.804,32.754-18.915   L79.02,74.04z M32.045,18.479c1.38-0.798,2.797-1.481,4.229-2.075l1.293,2.238c-2.947,1.184-5.683,2.777-8.14,4.709l-1.296-2.245   C29.365,20.16,30.663,19.276,32.045,18.479z M21.568,27.671l2.244,1.297c-1.933,2.458-3.524,5.194-4.707,8.14l-2.248-1.297   C18.071,32.881,19.66,30.148,21.568,27.671z M14.464,44.781h2.587c-0.217,1.537-0.337,3.106-0.337,4.702   c0,1.597,0.12,3.167,0.337,4.703h-2.597C14.039,51.04,14.051,47.879,14.464,44.781z M21.569,71.297   c-1.908-2.48-3.498-5.211-4.711-8.143l2.247-1.297c1.183,2.947,2.776,5.684,4.709,8.144L21.569,71.297z M36.277,82.561   c-2.891-1.19-5.635-2.762-8.149-4.692l1.3-2.253c2.458,1.934,5.196,3.525,8.142,4.712L36.277,82.561z M54.646,84.963   c-1.541,0.203-3.107,0.318-4.704,0.318c-1.595,0-3.162-0.115-4.704-0.318v-2.587c1.538,0.22,3.106,0.338,4.704,0.338   c1.597,0,3.165-0.118,4.704-0.338V84.963z M54.646,16.588c-1.539-0.218-3.105-0.337-4.704-0.337c-1.598,0-3.166,0.12-4.704,0.337   v-2.586c1.542-0.203,3.109-0.318,4.704-0.318c1.595,0,3.163,0.116,4.704,0.318V16.588z M85.425,54.186h-2.589   c0.217-1.535,0.336-3.104,0.336-4.703c0-1.596-0.119-3.165-0.336-4.702h2.596C85.85,47.925,85.838,51.086,85.425,54.186z    M78.322,27.671c1.904,2.477,3.492,5.209,4.71,8.139l-2.251,1.298c-1.184-2.946-2.774-5.682-4.705-8.14L78.322,27.671z    M67.844,80.486c-1.381,0.795-2.796,1.479-4.232,2.074l-1.291-2.235c2.945-1.187,5.682-2.778,8.141-4.712l1.297,2.246   C70.523,78.805,69.227,79.688,67.844,80.486z M70.46,23.352c-2.458-1.933-5.192-3.526-8.14-4.709l1.293-2.238   c2.891,1.192,5.633,2.763,8.148,4.693L70.46,23.352z M76.075,70.001c1.931-2.46,3.522-5.194,4.706-8.144l2.246,1.297   c-1.213,2.932-2.801,5.662-4.709,8.143L76.075,70.001z"></path></g></svg>